<svg fill="none" xmlns="http://www.w3.org/2000/svg" viewBox="0 0 830 401"><path d="M830 .258331H0V400.258h830V.258331Z" fill="#fff"/><path fill-rule="evenodd" clip-rule="evenodd" d="M255.644 88.153c2.162-5.822 3.21-11.9975 3.09-18.2057.131-6.2132-.934-12.3938-3.137-18.2058-1.912-4.959-4.851-9.459-8.623-13.2057-3.643-3.5688-8.014-6.3105-12.815-8.0382-5.002-1.7904-10.28-2.6893-15.593-2.6556-5.227-.0232-10.416.8758-15.33 2.6556-4.786 1.7566-9.151 4.4948-12.814 8.0382-3.809 3.7506-6.802 8.2464-8.791 13.2057-2.279 5.794-3.386 11.9819-3.257 18.2058-.117 6.2122.948 12.39 3.138 18.2057 1.909 4.939 4.849 9.4161 8.622 13.134 3.657 3.54 8.025 6.264 12.815 7.99 5.01 1.791 10.296 2.689 15.617 2.656 5.408.044 10.782-.855 15.881-2.656 4.789-1.697 9.148-4.425 12.766-7.99 3.714-3.7289 6.589-8.2067 8.431-13.134Zm-57.054-7.5119c-1.019-3.4718-1.511-7.0763-1.461-10.6938-.044-3.6013.448-7.1892 1.461-10.6459.846-2.9975 2.27-5.8011 4.191-8.2536 1.788-2.2738 4.074-4.1073 6.683-5.3589 2.847-1.326 5.961-1.9807 9.102-1.9138 3.111-.0466 6.193.5904 9.03 1.866 2.637 1.2066 4.951 3.0181 6.755 5.2871 1.907 2.4617 3.329 5.2624 4.191 8.2536.995 3.5007 1.479 7.1266 1.438 10.7655.045 3.6155-.439 7.2183-1.438 10.6938-.872 2.9724-2.294 5.7555-4.191 8.2057-1.804 2.269-4.118 4.0805-6.755 5.2871-2.863 1.2315-5.948 1.8667-9.066 1.8667-3.118 0-6.202-.6352-9.066-1.8667-2.616-1.2084-4.906-3.0206-6.683-5.2871-1.906-2.4443-3.329-5.2292-4.191-8.2057Zm-71.594-51.8899c12.12 0 21.405 2.153 27.857 6.4592 6.451 4.3063 9.644 10.9969 9.581 20.0719.231 4.8949-1.139 9.732-3.905 13.7799-2.894 3.7664-6.785 6.6499-11.233 8.3253 1.628 2.0096 3.329 4.3302 5.125 6.9139 1.797 2.5837 3.545 5.3349 5.294 8.1579 1.749 2.823 3.449 5.7656 5.078 8.8277 1.629 3.062 3.138 6.077 4.551 9.019h-20.312l-4.503-8.014c-1.533-2.7275-3.09-5.359-4.79-7.9188-.551-.8285-1.076-1.642-1.59-2.438l-.001-.0006c-1.074-1.6631-2.098-3.25-3.2-4.7385-.314-.4239-.623-.846-.93-1.2647l-.001-.0013-.001-.0019c-1.285-1.7539-2.525-3.4465-3.858-4.9522h-8.959v29.426H103.02V30.8564c4.06-.7807 8.163-1.324 12.287-1.6268 4.575-.311 8.36-.4784 11.689-.4784Zm1.054 15.4784h-.001c-1.317 0-2.395 0-3.544.1196l-2.97.2393v21.866h5.126c6.818 0 11.712-.8533 14.682-2.5598 1.48-.8975 2.677-2.1918 3.456-3.7355.779-1.5438 1.109-3.2749.952-4.9965.139-1.6847-.21-3.3738-1.004-4.8666s-2-2.7265-3.475-3.5545c-4.133-1.9117-8.675-2.7745-13.222-2.512ZM35.6891 110.306V29.6842h54.0367v15.2393H53.9409v16.866h31.8328v15.2392H53.9409v33.2773H35.6891Zm293.1779 0c-5.222-9.218-10.85-18.3331-16.886-27.3443-5.953-8.8593-12.415-17.3664-19.354-25.4784v52.8227h-17.916V29.6842h14.778c2.563 2.5598 5.39 5.7177 8.503 9.4258 3.114 3.7081 6.276 7.7034 9.581 11.9617 3.306 4.2584 6.444 8.5886 9.581 13.1341l1.034 1.4977.003.0033.003.0042c2.765 4.0039 5.427 7.8586 7.919 11.5809V29.6842h18.06v80.6218h-15.306Zm94.564-65.1434V29.6842H356.58v15.4784h24.336v65.1434h18.18V45.1626h24.335Zm12.479 65.1434V29.6842h54.516v15.2393h-36.36v15.7416h32.264v14.8804h-32.264v19.4258h39.019v15.2397l-57.175.095Zm108.673-27.3443c6.068 9.0112 11.697 18.1263 16.886 27.3443h15.306V29.6842h-18.06v47.6077c-2.492-3.7226-5.154-7.5776-7.92-11.5817l-.002-.0036-1.037-1.5008c-3.137-4.5455-6.275-8.8757-9.58-13.1341-3.306-4.2583-6.468-8.2536-9.581-11.9617-3.114-3.7081-5.941-6.866-8.504-9.4258h-14.778v80.6218h17.916V57.4833c6.939 8.112 13.401 16.6191 19.354 25.4784Zm122.301-13.0144c.129 6.2394-.978 12.4428-3.258 18.2536-2.018 4.9804-5.196 9.4088-9.269 12.9191-4.273 3.561-9.252 6.178-14.611 7.679-6.295 1.777-12.813 2.639-19.354 2.56-3.257 0-7.066-.144-11.401-.407-4.305-.264-8.587-.824-12.815-1.675V30.7367c4.333-.783 8.708-1.3103 13.102-1.5789 4.551-.2632 8.456-.4067 11.713-.4067 6.347-.0513 12.672.7534 18.803 2.3924 5.296 1.3838 10.236 3.8794 14.491 7.3205 4.121 3.4334 7.33 7.8298 9.341 12.7991 2.299 5.9554 3.406 12.3033 3.258 18.6842Zm-52.456 25.598c.479 0 1.013.0391 1.592.0815.435.0318.896.0655 1.378.086.727.0309 1.513.0219 2.411.0117h.001c.493-.0057 1.02-.0117 1.588-.0117 9.102 0 15.833-2.2727 20.216-6.866 4.383-4.5933 6.587-10.8852 6.587-18.9474 0-8.437-2.1-14.8166-6.299-19.1387-4.2-4.3222-10.835-6.4912-19.905-6.5072h-3.856c-1.243.0178-2.483.1136-3.713.2871v51.0047ZM42.1323 214.397c6.8663 7.289 16.8625 10.933 29.9884 10.933 5.4833.121 10.9589-.474 16.2877-1.77 3.7917-.893 7.4426-2.302 10.8505-4.187l-5.0301-14.545c-1.006.478-2.1317.981-3.3772 1.507-1.3872.602-2.8211 1.09-4.2875 1.459-1.8445.479-3.7162.847-5.6049 1.101-2.38.337-4.7819.497-7.1857.478-3.6744.106-7.3278-.588-10.7068-2.033-2.8035-1.242-5.2677-3.137-7.1857-5.527-1.8986-2.463-3.2537-5.301-3.9761-8.325-.8382-3.405-1.2486-6.901-1.2216-10.407-.1091-4.065.5157-8.117 1.8444-11.961 1.071-2.976 2.7608-5.691 4.9581-7.967 2.0121-2.032 4.4733-3.564 7.1857-4.474 2.6392-.93 5.417-1.407 8.2157-1.411 6.9285-.07 13.7666 1.574 19.9045 4.785l5.2456-14.665c-.6467-.383-1.6288-.933-3.042-1.627-1.6834-.816-3.4295-1.496-5.2216-2.034-2.411-.739-4.8672-1.323-7.3534-1.746-3.0769-.531-6.1951-.788-9.3175-.766-5.6058-.074-11.1793.858-16.4553 2.752-4.8949 1.759-9.3488 4.558-13.0541 8.205-3.7607 3.775-6.6968 8.288-8.6229 13.254-2.1718 5.704-3.2367 11.769-3.1378 17.871 0 13.445 3.4332 23.811 10.2996 31.1Zm146.3497-31.053c.112 6.206-.927 12.379-3.066 18.206-1.866 4.921-4.747 9.396-8.455 13.134-3.614 3.566-7.974 6.287-12.767 7.967-5.094 1.819-10.47 2.726-15.881 2.679-5.323.04-10.611-.868-15.617-2.679-4.793-1.708-9.163-4.425-12.814-7.967-3.769-3.722-6.707-8.198-8.623-13.134-2.189-5.815-3.254-11.993-3.138-18.206-.129-6.231.978-12.427 3.258-18.229 1.995-4.949 4.987-9.436 8.79-13.182 3.657-3.551 8.024-6.291 12.815-8.038 4.909-1.8 10.101-2.707 15.329-2.68 5.316-.037 10.596.87 15.594 2.68 4.805 1.719 9.177 4.461 12.814 8.038 3.775 3.736 6.714 8.228 8.623 13.182 2.203 5.82 3.268 12.008 3.138 18.229Zm-61.606 0c-.05 3.618.442 7.222 1.461 10.694.863 2.977 2.285 5.762 4.192 8.206 1.79 2.253 4.077 4.062 6.683 5.287 2.863 1.232 5.948 1.867 9.066 1.867 3.117 0 6.202-.635 9.066-1.867 2.626-1.223 4.937-3.032 6.754-5.287 1.898-2.45 3.319-5.233 4.192-8.206.998-3.475 1.482-7.078 1.437-10.694.045-3.639-.439-7.265-1.437-10.765-.862-2.999-2.285-5.807-4.192-8.278-1.817-2.255-4.128-4.064-6.754-5.287-2.837-1.275-5.92-1.912-9.031-1.866-3.142-.059-6.256.604-9.101 1.938-2.602 1.253-4.887 3.076-6.683 5.335-1.916 2.465-3.34 5.275-4.192 8.278-1.014 3.456-1.506 7.044-1.461 10.645Zm103.786-30.693c-1.773-3.852-3.377-7.01-4.791-9.57l-17.293-.048c-.791 5.359-1.485 11.34-2.156 17.967-.671 6.627-1.245 13.541-1.748 20.718-.503 7.177-.982 14.354-1.39 21.531-.447 7.193-.822 13.979-1.125 20.359h17.7c.224-7.831.535-16.364.935-25.598.399-9.235.982-18.541 1.748-27.919l4.671 10.813c.636 1.501 1.279 2.982 1.918 4.454 1.092 2.516 2.171 5.002 3.184 7.508 1.604 3.971 3.233 7.751 4.79 11.34l3.88 9.306h12.695c.816-1.937 1.782-4.175 2.879-6.714l.594-1.377c.165-.383.333-.772.503-1.167 1.517-3.589 3.114-7.369 4.791-11.34 1.597-3.956 3.289-7.943 5.078-11.962 1.788-4.019 3.385-7.623 4.79-10.813.767 9.362 1.35 18.668 1.749 27.918.399 9.251.702 17.783.91 25.598h17.725c-.241-4.914-.538-10.099-.849-15.511-.091-1.596-.184-3.213-.277-4.847-.407-7.177-.886-14.354-1.389-21.531-.511-7.193-1.094-14.099-1.749-20.718-.654-6.619-1.373-12.608-2.155-17.967h-16.623l-.137.271-.405.801c-1.225 2.423-2.647 5.235-4.249 8.498-1.836 3.78-3.745 7.855-5.725 12.225-1.98 4.37-3.944 8.851-5.892 13.445l-5.485 12.894c-1.725-4.019-3.545-8.301-5.485-12.894-1.94-4.594-3.904-9.067-5.892-13.445-1.115-2.454-2.221-4.788-3.291-7.043v-.001c-.839-1.768-1.655-3.489-2.434-5.181Zm100.504-9.57c1.414 2.56 3.018 5.718 4.791 9.57.776 1.686 1.589 3.401 2.425 5.162l.008.017v.001c1.07 2.256 2.177 4.59 3.292 7.045 1.988 4.378 3.928 8.851 5.892 13.445.927 2.168 1.817 4.268 2.68 6.303l.007.015.006.016c.96 2.264 1.886 4.448 2.792 6.56l5.485-12.894c1.948-4.594 3.912-9.075 5.892-13.445 1.98-4.37 3.889-8.445 5.725-12.225 1.603-3.265 3.025-6.077 4.25-8.501l.001-.001.539-1.068h16.719c.767 5.359 1.485 11.348 2.156 17.967.671 6.619 1.254 13.525 1.749 20.718.503 7.177.982 14.354 1.389 21.531.076 1.346.153 2.68.228 4.001l.049.846c.31 5.412.608 10.597.849 15.511h-17.725c-.208-7.815-.511-16.347-.91-25.598-.4-9.25-.983-18.556-1.749-27.918-1.421 3.19-3.018 6.794-4.79 10.813-1.773 4.019-3.466 8.006-5.078 11.962-1.597 3.971-3.194 7.751-4.791 11.34-.187.434-.371.86-.552 1.279l-.545 1.264c-1.097 2.54-2.063 4.778-2.879 6.715h-12.695l-3.976-9.306c-1.557-3.589-3.186-7.369-4.79-11.34-1.013-2.506-2.092-4.993-3.184-7.508-.639-1.472-1.282-2.953-1.918-4.454l-4.671-10.813c-.766 9.378-1.349 18.684-1.748 27.919-.4 9.234-.711 17.767-.935 25.598h-17.701c.312-6.364.695-13.158 1.102-20.359.401-7.08.894-14.114 1.388-21.17v-.003l.026-.358c.502-7.177 1.077-14.091 1.748-20.718.671-6.627 1.365-12.608 2.156-17.967l17.293.048Zm100.768 79.857c4.696 1.698 9.667 2.509 14.659 2.392 5.067.144 10.119-.609 14.923-2.225 3.91-1.382 7.456-3.631 10.371-6.579 2.753-2.901 4.816-6.384 6.036-10.191 1.374-4.2 2.045-8.597 1.988-13.014v-50.24h-18.156v48.541c-.016 6.523-1.397 11.132-4.143 13.828-1.428 1.371-3.119 2.438-4.972 3.137-1.853.699-3.828 1.016-5.807.93-2.033.03-4.056-.278-5.988-.909-1.801-.602-3.412-1.666-4.671-3.087-1.389-1.632-2.418-3.54-3.018-5.598-.806-2.691-1.185-5.492-1.126-8.301v-48.636h-18.156v50.239c-.046 4.396.601 8.771 1.917 12.966 1.197 3.775 3.227 7.233 5.94 10.12 2.859 2.947 6.347 5.212 10.203 6.627Zm120.433.765c-5.189-9.234-10.778-18.349-16.766-27.344-5.961-8.86-12.431-17.367-19.378-25.479v52.823h-17.916v-80.622h14.778c2.571 2.552 5.406 5.694 8.503 9.426 3.114 3.708 6.276 7.704 9.581 11.962 3.306 4.258 6.444 8.612 9.581 13.158l1.044 1.511.001.001c2.763 4.002 5.423 7.854 7.914 11.574v-47.632h18.06v80.622h-15.402Zm52.887-80.622h-18.18v80.622h18.18v-80.622Zm79.307 0v15.479h-24.336v65.143h-18.18V158.56h-24.336v-15.479h66.852Zm51.354 16.579c-3.018 5.519-6.124 11.013-9.318 16.483-3.257-5.502-6.323-10.996-9.197-16.483-2.875-5.486-5.549-11.012-8.024-16.579h-21.079c4.424 8.693 9.022 17.145 13.797 25.359 4.775 8.214 9.804 16.436 15.09 24.665v30.598h18.156v-30.837c5.254-8.214 10.26-16.396 15.018-24.545 4.759-8.15 9.342-16.563 13.749-25.24h-20.024c-2.428 5.535-5.15 11.061-8.168 16.579ZM33.8928 306.981h19.3775v41.459H93.726v20.024H33.8928v-61.483Zm768.4422 61.507h-59.833v-20.024h40.455v-41.459h19.378v61.483ZM782.957 47.866h-40.455V27.842h59.833v61.4833h-19.378V47.866ZM446.993 314.563c.861.021 1.721-.059 2.563-.24.579-.127 1.125-.371 1.605-.717.383-.255.676-.623.838-1.053.171-.425.253-.881.24-1.34-.008-.531-.148-1.051-.407-1.515-.259-.463-.63-.855-1.078-1.14-1.616-.963-3.346-1.718-5.15-2.249-1.078-.383-2.132-.813-3.186-1.292-1.034-.464-1.994-1.076-2.85-1.818-.86-.745-1.561-1.657-2.06-2.679-.581-1.182-.861-2.489-.814-3.804-.021-1.396.274-2.778.862-4.043.55-1.193 1.37-2.241 2.395-3.063 1.116-.884 2.393-1.542 3.761-1.937 1.61-.47 3.281-.696 4.958-.67 1.907-.032 3.81.202 5.653.694 1.355.383 2.671.896 3.928 1.531l-2.108 5.765c-.969-.499-1.979-.915-3.018-1.244-1.298-.381-2.647-.559-4-.526-1.295-.096-2.592.152-3.76.718-.379.228-.687.557-.89.95-.203.393-.293.834-.26 1.274-.016.528.135 1.047.431 1.484.313.442.712.816 1.174 1.1.569.352 1.17.648 1.796.885.671.264 1.413.551 2.204.814 1.7.646 3.161 1.244 4.407 1.866 1.144.531 2.195 1.242 3.114 2.105.825.805 1.456 1.786 1.844 2.871.443 1.276.654 2.621.623 3.971.063 1.341-.193 2.677-.747 3.899-.553 1.223-1.389 2.297-2.439 3.135-2.847 1.819-6.211 2.659-9.581 2.392-1.297.013-2.594-.067-3.88-.239-1.034-.154-2.058-.37-3.066-.646-.818-.2-1.619-.464-2.395-.79-.623-.287-1.174-.55-1.605-.789l2.06-5.79c1.134.6 2.331 1.073 3.569 1.412 1.712.493 3.487.735 5.269.718Zm-80.678-10.646c.041 2.496-.381 4.978-1.245 7.321-.757 1.977-1.915 3.777-3.402 5.287-1.455 1.421-3.205 2.507-5.126 3.181-2.052.731-4.216 1.096-6.395 1.077-2.131.012-4.247-.352-6.251-1.077-1.924-.683-3.679-1.767-5.15-3.181-1.524-1.493-2.709-3.297-3.473-5.287-.884-2.338-1.315-4.823-1.27-7.321-.044-2.503.403-4.99 1.318-7.321.806-1.993 2.013-3.8 3.545-5.311 1.471-1.419 3.226-2.511 5.149-3.205 1.964-.721 4.04-1.085 6.132-1.077 2.139-.015 4.264.35 6.276 1.077 1.923.694 3.678 1.786 5.149 3.205 1.517 1.509 2.7 3.318 3.474 5.311.883 2.338 1.314 4.822 1.269 7.321Zm-24.767 0c-.017 1.456.177 2.906.575 4.306.356 1.189.933 2.301 1.701 3.278.705.919 1.626 1.651 2.682 2.129 1.141.524 2.386.786 3.641.765 1.255.016 2.499-.245 3.641-.765 1.067-.471 1.998-1.203 2.707-2.129.767-.977 1.344-2.089 1.7-3.278.398-1.4.592-2.85.575-4.306.017-1.463-.177-2.922-.575-4.33-.351-1.199-.928-2.32-1.7-3.302-.709-.926-1.64-1.658-2.707-2.129-1.142-.519-2.386-.781-3.641-.765-1.258-.024-2.505.246-3.641.789-1.046.494-1.964 1.223-2.682 2.129-.768.994-1.345 2.122-1.701 3.326-.396 1.392-.59 2.834-.575 4.282Zm60.408 0c.055 2.509-.384 5.005-1.293 7.345-.827 1.995-2.106 3.772-3.737 5.191-1.721 1.423-3.719 2.474-5.868 3.086-2.525.709-5.138 1.055-7.761 1.029h-.001c-1.317 0-2.85 0-4.597-.167-1.731-.111-3.452-.343-5.15-.694v-31.531c1.742-.317 3.502-.533 5.269-.646.972 0 1.875-.048 2.718-.093.736-.038 1.425-.075 2.073-.075 2.545-.028 5.083.286 7.545.933 2.121.573 4.102 1.575 5.82 2.943 1.649 1.388 2.939 3.152 3.761 5.143.891 2.41 1.306 4.969 1.221 7.536Zm-21.102 10.287h2.803c1.472.122 2.953-.062 4.35-.539 1.398-.478 2.681-1.239 3.77-2.236.925-1.029 1.636-2.232 2.092-3.538.457-1.305.649-2.689.566-4.069.202-1.422.067-2.87-.394-4.23-.461-1.359-1.236-2.591-2.261-3.597-1.026-1.006-2.274-1.757-3.643-2.192-1.369-.436-2.822-.544-4.241-.316h-1.533c-.504.014-1.008.054-1.509.119v20.598Zm28.36-26.459v32.393l23.066-.072v-6.124h-15.761v-7.728h12.959v-5.981h-12.959v-6.363h14.611v-6.125h-21.916Zm77.947 28.923c.408 1.196.791 2.344 1.15 3.469h7.833c-.725-2.016-1.442-3.964-2.13-5.836-.471-1.282-.929-2.527-1.367-3.734-1.023-2.813-2.045-5.411-3.047-7.958l-.163-.415c-1.054-2.679-2.084-5.072-3.114-7.464-1.054-2.344-2.108-4.641-3.162-6.89h-6.922c-1.102 2.249-2.132 4.522-3.162 6.89-1.029 2.369-2.083 4.857-3.113 7.464-.963 2.436-1.988 5.144-2.997 7.811l-.213.562c-1.078 2.847-2.252 6.077-3.473 9.57h7.593c.125-.375.25-.765.378-1.164.24-.746.491-1.526.772-2.305l1.221-3.541h12.671c.091.257.183.516.276.777.323.906.653 1.835.969 2.764Zm-8.335-19.665.719-1.914.021.051c.19.449.445 1.055.745 1.839.237.62.502 1.295.806 2.068.095.242.193.493.296.755.416 1.063.811 2.127 1.269 3.363l.048.13c.479 1.292.958 2.631 1.461 4.043h-9.293l1.509-4.019c.053-.134.105-.266.157-.397.445-1.121.865-2.178 1.208-3.12.349-.96.679-1.82.97-2.58l.084-.219Z" fill="#DB3D00"/></svg>