<?xml version="1.0" encoding="UTF-8"?>
<svg width="726px" height="352px" viewBox="0 0 726 352" version="1.1" xmlns="http://www.w3.org/2000/svg" xmlns:xlink="http://www.w3.org/1999/xlink">
    <!-- Generator: Sketch 51.3 (57544) - http://www.bohemiancoding.com/sketch -->
    <title>Layer_4</title>
    <desc>Created with Sketch.</desc>
    <defs></defs>
    <g id="Page-1" stroke="none" stroke-width="1" fill="none" fill-rule="evenodd">
        <g id="Artboard" fill-rule="nonzero">
            <g id="Layer_4">
                <rect id="Rectangle-path" fill="#FFFFFF" x="0" y="0" width="728" height="352"></rect>
                <polygon id="Shape" fill="#DB3C00" points="31 94 31 24 78 24 78 37.231454 46.875 37.231454 46.875 51.8753709 74.5625 51.8753709 74.5625 65.1068249 46.875 65.1068249 46.875 94"></polygon>
                <path d="M111.967136,24 C122.565908,24 130.686048,25.8986229 136.327555,29.6958687 C141.969062,33.4931146 144.761888,39.3929095 144.706031,47.3952534 C144.908522,51.7116123 143.710035,55.9770074 141.291802,59.5464401 C138.760395,62.8676599 135.357867,65.4103846 131.468039,66.887782 C132.89238,68.6598301 134.379559,70.7061236 135.950524,72.9844711 C137.521488,75.2628186 139.05056,77.6888368 140.579632,80.1781424 C142.108704,82.667448 143.595883,85.2622326 145.020224,87.9624963 C146.444565,90.66276 147.764175,93.3208321 149,95.9156168 L131.237631,95.9156168 L127.299747,88.8485204 C125.959191,86.443598 124.597689,84.1230589 123.110509,81.8658072 C121.62333,79.6085555 120.345612,77.4778787 118.921271,75.5370642 C117.49693,73.5962496 116.17732,71.6976267 114.732033,70.0521535 L106.898158,70.0521535 L106.898158,96 L91,96 L91,25.8564313 C94.5510072,25.1679336 98.1389173,24.688946 101.745395,24.4219162 C105.746118,24.1476707 109.055616,24 111.967136,24 Z M112.888769,37.6489892 C111.736728,37.6489892 110.79415,37.6489892 109.788732,37.7544682 L107.191405,37.9654263 L107.191405,57.2469968 L111.673889,57.2469968 C117.636572,57.2469968 121.916576,56.4945795 124.513904,54.9897451 C127.153253,53.3750045 128.6488,50.3871037 128.368003,47.2897744 C128.616201,44.2561341 127.08596,41.3551059 124.451065,39.8640492 C120.836775,38.1783678 116.865152,37.4174997 112.888769,37.6489892 Z" id="Shape" fill="#DB3C00"></path>
                <path d="M225.990681,59.5516589 C226.094907,64.9409152 225.182168,70.3017651 223.299874,75.3557548 C221.695107,79.6330595 219.191897,83.5201008 215.957516,86.7571327 C212.806408,89.8518603 209.011053,92.2197627 204.839685,93.6934901 C200.399495,95.256441 195.719564,96.0365243 191.010189,95.9986868 C186.376341,96.0277983 181.773268,95.2475813 177.410141,93.6934901 C173.238587,92.1949051 169.434664,89.8305292 166.250592,86.7571327 C162.964046,83.529617 160.404369,79.6432199 158.741363,75.3557548 C156.834671,70.3072269 155.907431,64.9443496 156.008838,59.5516589 C155.896245,54.1487507 156.860432,48.7772089 158.845658,43.7475631 C160.577583,39.4424143 163.183744,35.5397027 166.500899,32.2838826 C169.690756,29.2078755 173.492164,26.8309139 177.660448,25.30599 C181.939325,23.7610056 186.45866,22.9806193 191.010189,23.0007934 C195.637248,22.9715333 200.233498,23.7517905 204.589378,25.30599 C208.770016,26.8057646 212.576458,29.1858738 215.748927,32.2838826 C219.034477,35.5363347 221.593348,39.442738 223.258156,43.7475631 C225.176745,48.7928683 226.104383,54.1580447 225.990681,59.5516589 Z M172.341411,59.5516589 C172.297818,62.6919051 172.726705,65.8209529 173.613808,68.8347481 C174.364826,71.4185636 175.603714,73.8361415 177.264128,75.9580133 C178.811211,77.9255138 180.805936,79.4986393 183.08378,80.5476391 C188.123492,82.7083174 193.834308,82.7083174 198.87402,80.5476391 C201.170365,79.5002025 203.185804,77.9276505 204.75625,75.9580133 C206.4086,73.8310418 207.646672,71.415057 208.406569,68.8347481 C209.276107,65.817686 209.697748,62.6902235 209.658107,59.5516589 C209.694662,56.3928052 209.273138,53.2452323 208.406569,50.2062672 C207.655697,47.6097135 206.417039,45.1784916 204.75625,43.0414668 C203.185804,41.0718297 201.170365,39.4992777 198.87402,38.4518411 C196.403679,37.3445563 193.719033,36.791547 191.010189,36.8319732 C188.275104,36.7738986 185.563191,37.3423251 183.08378,38.4933762 C180.811692,39.5798617 178.820618,41.1714231 177.264128,43.1453045 C175.590551,45.2742516 174.35058,47.7080497 173.613808,50.3101049 C172.732342,53.3108894 172.303529,56.4254037 172.341411,59.5516589 Z" id="Shape" fill="#DB3C00"></path>
                <path d="M288.558966,94 C283.973448,85.9960435 279.030345,78.0820969 273.729655,70.2581602 C268.502117,62.5660768 262.827306,55.1797931 256.733793,48.1364985 L256.733793,94 L241,94 L241,24 L253.978276,24 C256.228966,26.2225519 258.711034,28.9643917 261.445517,32.1839763 C264.18,35.4035608 266.956552,38.8724036 269.85931,42.5697329 C272.762069,46.2670623 275.517586,50.0267062 278.273103,53.9732938 C281.028621,57.9198813 283.678966,61.7002967 286.14,65.3353116 L286.14,24 L302,24 L302,94 L288.558966,94 Z" id="Shape" fill="#DB3C00"></path>
                <polygon id="Shape" fill="#DB3C00" points="373 24 373 37.4391691 351.158366 37.4391691 351.158366 94 334.841634 94 334.841634 37.4391691 313 37.4391691 313 24"></polygon>
                <polygon id="Shape" fill="#DB3C00" points="383 94 383 24 430.674906 24 430.674906 37.231454 398.877671 37.231454 398.877671 50.8991098 427.093004 50.8991098 427.093004 63.8189911 398.877671 63.8189911 398.877671 80.6854599 433 80.6854599 433 93.9169139"></polygon>
                <path d="M492.558966,94 C488.001494,85.9960435 483.058391,78.0820969 477.729655,70.2581602 C472.502117,62.5660768 466.827306,55.1797931 460.733793,48.1364985 L460.733793,94 L445,94 L445,24 L457.978276,24 C460.228966,26.2225519 462.711034,28.9643917 465.445517,32.1839763 C468.18,35.4035608 470.956552,38.8724036 473.85931,42.5697329 C476.762069,46.2670623 479.517586,50.0267062 482.273103,53.9732938 C485.028621,57.9198813 487.678966,61.7002967 490.14,65.3353116 L490.14,24 L506,24 L506,94 L492.558966,94 Z" id="Shape" fill="#DB3C00"></path>
                <path d="M585.988532,59.9049857 C586.101333,65.3427437 585.130797,70.7490366 583.132692,75.8132129 C581.362838,80.1536864 578.577105,84.0131281 575.006146,87.0719844 C571.260337,90.176043 566.894746,92.4570174 562.196863,93.7646986 C556.67845,95.3135979 550.964057,96.0649523 545.229812,95.9956033 C542.373972,95.9956033 539.035159,95.8705058 535.234371,95.6411605 C531.460341,95.4106543 527.706716,94.9230164 524,94.1816901 L524,25.7325291 C527.798217,25.0500752 531.633659,24.590587 535.486357,24.3564571 C539.476134,24.1271117 542.898943,24.0020143 545.754783,24.0020143 C551.318939,23.9572569 556.863711,24.658577 562.238861,26.086972 C566.88217,27.292977 571.213187,29.4679718 574.94315,32.4669425 C578.556098,35.4591366 581.369174,39.2906713 583.132692,43.6214661 C585.147889,48.8116682 586.118153,54.3439485 585.988532,59.9049857 Z M540.001105,82.214033 C540.736064,82.214033 541.618014,82.3182808 542.604959,82.35998 C543.591904,82.4016792 544.704842,82.35998 546.111763,82.35998 C554.091316,82.35998 559.991986,80.3792702 563.834771,76.3761514 C567.677556,72.3730327 569.609448,66.8895939 569.609448,59.8632865 C569.609448,52.5103357 567.768551,46.9504486 564.086757,43.183625 C560.404963,39.4168015 554.588289,37.5264398 546.636734,37.5125401 L543.255923,37.5125401 C542.166768,37.5279867 541.079675,37.6115506 540.001105,37.762735 L540.001105,82.214033 Z" id="Shape" fill="#DB3C00"></path>
                <path d="M63.8530594,195.986663 C52.1738683,195.986663 43.2794965,192.824616 37.169944,186.500521 C31.0603915,180.176425 28.0056153,171.181542 28.0056153,159.51587 C27.9175944,154.221548 28.8650984,148.959297 30.7975387,144.010074 C32.511301,139.7015 35.1237879,135.785861 38.47,132.510461 C41.7668852,129.346203 45.7299477,126.916967 50.0852539,125.390665 C54.7797258,123.747734 59.7389637,122.939201 64.7268675,123.003561 C67.505152,122.984534 70.279645,123.206827 73.0173881,123.667798 C75.2295465,124.035319 77.4150542,124.541468 79.5602926,125.18309 C81.1548455,125.649544 82.7085069,126.239555 84.2063941,126.947471 C85.4638253,127.549437 86.3376334,128.026857 86.913068,128.358976 L82.245654,141.083277 C76.7842354,138.297428 70.6998529,136.871207 64.5350559,136.931792 C62.0448303,136.935208 59.573176,137.34929 57.2249053,138.15648 C54.8113999,138.94573 52.621544,140.275196 50.8311876,142.038119 C48.876072,144.012998 47.3725325,146.368752 46.4195224,148.950341 C45.2372717,152.285919 44.6813838,155.801587 44.7784681,159.329053 C44.7544626,162.371158 45.1195836,165.404332 45.8654002,168.358532 C46.5081967,170.982536 47.7138991,173.444334 49.4032573,175.582116 C51.1098528,177.6557 53.3024989,179.300074 55.796975,180.37708 C58.8035541,181.631184 62.054266,182.233232 65.3236145,182.141462 C67.4624809,182.15789 69.5996328,182.019123 71.7173322,181.726313 C73.3978866,181.505914 75.0632731,181.187055 76.704432,180.771472 C78.0092003,180.450789 79.285042,180.027327 80.5193503,179.505269 C81.6275947,179.048605 82.6292771,178.612699 83.5243976,178.197551 L88,190.818065 C84.9677842,192.453753 81.7192511,193.676027 78.3454862,194.450614 C73.6040138,195.575368 68.7319466,196.091758 63.8530594,195.986663 Z" id="Shape" fill="#DB3C00"></path>
                <path d="M164.990667,159.562008 C165.088858,164.947454 164.183594,170.304388 162.320719,175.361524 C160.695635,179.632338 158.187028,183.515599 154.957505,186.759598 C151.810762,189.854019 148.013638,192.215248 143.839676,193.673183 C139.403263,195.252345 134.72158,196.039523 130.010182,195.998474 C125.374127,196.032685 120.768961,195.245309 116.410137,193.673183 C112.235633,192.190994 108.429875,189.833242 105.25059,186.759598 C101.968473,183.529409 99.4094586,179.645143 97.7413629,175.361524 C95.8346714,170.314459 94.9074312,164.953136 95.0088385,159.562008 C94.8962442,154.15392 95.8603827,148.777146 97.8456577,143.741731 C99.5827535,139.446636 102.188435,135.55284 105.500898,132.302134 C108.685343,129.220159 112.488303,126.842916 116.660444,125.326264 C120.935387,123.764817 125.456543,122.97731 130.010182,123.000974 C134.63931,122.968344 139.237352,123.755709 143.589368,125.326264 C147.773788,126.817868 151.581807,129.198273 154.748915,132.302134 C158.03643,135.544014 160.59581,139.442987 162.258142,143.741731 C164.176859,148.792758 165.104456,154.163193 164.990667,159.562008 Z M111.341408,159.562008 C111.297816,162.701345 111.726702,165.829486 112.613805,168.842407 C113.364823,171.425474 114.603711,173.842351 116.264124,175.963608 C117.823346,177.918484 119.814942,179.488687 122.083775,180.551904 C127.123486,182.711956 132.834301,182.711956 137.874012,180.551904 C140.161528,179.490401 142.173887,177.920708 143.75624,175.963608 C145.40859,173.837253 146.646662,171.421968 147.406559,168.842407 C148.276096,165.82622 148.697738,162.699663 148.658097,159.562008 C148.697584,156.403894 148.276004,153.256815 147.406559,150.219325 C146.655769,147.617148 145.417224,145.179809 143.75624,143.03584 C142.173887,141.07874 140.161528,139.509046 137.874012,138.447544 C135.403671,137.34058 132.719026,136.787731 130.010182,136.828146 C127.273468,136.776578 124.561478,137.351959 122.083775,138.509829 C119.818134,139.596854 117.828673,141.179568 116.264124,143.139647 C114.595324,145.278702 113.355987,147.717602 112.613805,150.323133 C111.730821,153.322725 111.301976,156.436564 111.341408,159.562008 Z" id="Shape" fill="#DB3C00"></path>
                <path d="M199.952381,125.041543 C201.201058,127.264095 202.619048,130.005935 204.185185,133.350148 C205.751323,136.694362 207.486772,140.163205 209.243386,143.964392 C211,147.765579 212.73545,151.649852 214.449735,155.637982 C216.164021,159.626113 217.772487,163.344214 219.296296,166.833828 L224.142857,155.637982 C225.864198,151.649852 227.599647,147.758655 229.349206,143.964392 C231.098765,140.170129 232.784832,136.632047 234.407407,133.350148 C236.037037,130.089021 237.455026,127.347181 238.640212,125.041543 L253.328042,125.041543 C254.0194,129.694362 254.654321,134.894164 255.232804,140.64095 C255.811287,146.387735 256.326279,152.383778 256.777778,158.62908 C257.222222,164.860534 257.645503,171.091988 258.005291,177.323442 C258.365079,183.554896 258.724868,189.474777 259,195 L243.338624,195 C243.155203,188.214639 242.887125,180.806133 242.534392,172.774481 C242.181658,164.742829 241.666667,156.66271 240.989418,148.534125 C239.747795,151.30366 238.336861,154.433234 236.756614,157.922849 C235.176367,161.412463 233.680776,164.874382 232.269841,168.308605 C230.78836,171.756677 229.377425,175.038576 228.037037,178.154303 C226.661376,181.290801 225.47619,183.970326 224.52381,186.192878 L213.306878,186.192878 L209.878307,178.11276 C208.502646,174.997033 207.063492,171.715134 205.645503,168.267062 C204.227513,164.818991 202.661376,161.412463 201.137566,157.881306 L197.010582,148.492582 C196.333333,156.635015 195.818342,164.715134 195.465608,172.732938 C195.112875,180.750742 194.837743,188.159248 194.640212,194.958457 L179,194.958457 C179.268078,189.419387 179.599647,183.527201 179.994709,177.281899 C180.354497,171.050445 180.777778,164.818991 181.222222,158.587537 C181.666667,152.356083 182.174603,146.353116 182.767196,140.599407 C183.359788,134.845697 183.973545,129.652819 184.671958,125 L199.952381,125.041543 Z" id="Shape" fill="#DB3C00"></path>
                <path d="M291.930233,125.041543 C293.17759,127.264095 294.59408,130.005935 296.158562,133.350148 C297.723044,136.694362 299.45666,140.163205 301.211416,143.964392 C302.966173,147.765579 304.678647,151.649852 306.412262,155.637982 C308.145877,159.626113 309.731501,163.344214 311.2537,166.833828 L316.095137,155.637982 C317.814658,151.649852 319.548273,147.758655 321.295983,143.964392 C323.043693,140.170129 324.727977,136.632047 326.348837,133.350148 C327.976744,130.089021 329.393235,127.347181 330.577167,125.041543 L345.334038,125.041543 C346.010571,129.694362 346.64482,134.894164 347.236786,140.64095 C347.828753,146.387735 348.343199,152.383778 348.780127,158.62908 C349.224101,164.860534 349.646934,171.091988 350.006342,177.323442 C350.365751,183.554896 350.725159,189.474777 351,195 L335.35518,195 C335.171952,188.214639 334.904158,180.806133 334.551797,172.774481 C334.199436,164.742829 333.684989,156.66271 333.008457,148.534125 C331.754052,151.30366 330.344609,154.433234 328.780127,157.922849 C327.215645,161.412463 325.721635,164.874382 324.298097,168.308605 C322.888654,171.756677 321.479211,175.038576 320.069767,178.154303 C318.69556,181.290801 317.511628,183.970326 316.560254,186.192878 L305.35518,186.192878 L301.845666,178.11276 C300.471459,174.997033 299.033827,171.715134 297.617336,168.267062 C296.200846,164.818991 294.636364,161.412463 293.114165,157.881306 L288.991543,148.492582 C288.315011,156.635015 287.800564,164.715134 287.448203,172.732938 C287.095842,180.750742 286.821001,188.159248 286.623679,194.958457 L271,194.958457 C271.274841,189.433234 271.613108,183.534125 271.972516,177.281899 C272.331924,171.029674 272.775899,164.818991 273.219873,158.587537 C273.663848,152.356083 274.171247,146.353116 274.763214,140.599407 C275.35518,134.845697 275.968288,129.652819 276.665962,125 L291.930233,125.041543 Z" id="Shape" fill="#DB3C00"></path>
                <path d="M392.736587,196.984792 C388.352015,197.087441 383.986495,196.378255 379.862826,194.893427 C376.475759,193.656635 373.412762,191.67651 370.901678,189.100345 C368.519453,186.576304 366.736787,183.553329 365.68486,180.25387 C364.529486,176.586589 363.961595,172.76143 364.002015,168.918671 L364.002015,125 L379.946968,125 L379.946968,167.517456 C379.894554,169.972887 380.22813,172.421395 380.935639,174.774493 C381.462632,176.573128 382.365842,178.240797 383.58612,179.668288 C384.691773,180.909684 386.106413,181.840099 387.688053,182.366149 C389.384718,182.918501 391.161828,183.187057 392.946943,183.160868 C396.458514,183.312466 399.879326,182.027648 402.412944,179.605547 C404.825021,177.249276 406.038072,173.219912 406.052096,167.517456 L406.052096,125.083655 L421.997049,125.083655 L421.997049,169.002325 C422.047224,172.864245 421.457347,176.708019 420.251097,180.379352 C419.179763,183.70731 417.367899,186.752473 414.950137,189.288568 C412.390089,191.86525 409.275957,193.831585 405.84174,195.039823 C401.62313,196.452361 397.186215,197.110855 392.736587,196.984792 Z" id="Shape" fill="#DB3C00"></path>
                <path d="M484.474828,195 C479.917356,186.982196 475.00931,179.068249 469.75069,171.25816 C464.516347,163.565534 458.834503,156.179239 452.733793,149.136499 L452.733793,195 L437,195 L437,125 L449.978276,125 C452.235977,127.215628 454.725057,129.94362 457.445517,133.183976 C460.18,136.403561 462.956552,139.872404 465.85931,143.569733 C468.762069,147.267062 471.517586,151.047478 474.273103,154.994065 C477.028621,158.940653 479.678966,162.721068 482.14,166.356083 L482.14,125 L498,125 L498,195 L484.474828,195 Z" id="Shape" fill="#DB3C00"></path>
                <polygon id="Shape" fill="#DB3C00" points="516 125 532 125 532 195 516 195"></polygon>
                <polygon id="Shape" fill="#DB3C00" points="603 125 603 138.439169 581.158366 138.439169 581.158366 195 564.841634 195 564.841634 138.439169 543 138.439169 543 125"></polygon>
                <path d="M639.354502,153.706231 C642.219168,148.956479 645.005055,144.185955 647.712164,139.394659 C650.419273,134.603363 652.861401,129.805143 655.038547,125 L673,125 C669.046761,132.533136 664.935966,139.837784 660.667615,146.913947 C656.399263,153.990109 651.908899,161.093966 647.196524,168.225519 L647.196524,195 L630.9109,195 L630.9109,168.433234 C626.169879,161.287834 621.658031,154.149357 617.375355,147.017804 C613.09268,139.886251 608.967562,132.546983 605,125 L623.906793,125 C626.126909,129.832839 628.526066,134.631058 631.104265,139.394659 C633.682464,144.158259 636.432543,148.928783 639.354502,153.706231 Z" id="Shape" fill="#DB3C00"></path>
                <path d="M308.997206,267.02113 C309.032681,269.237823 308.666809,271.442069 307.918104,273.522331 C307.262442,275.278644 306.259183,276.877206 304.971323,278.217644 C303.71031,279.48023 302.194485,280.444725 300.530401,281.043329 C298.752582,281.692418 296.877038,282.016042 294.989624,281.999389 C293.143245,282.010373 291.309541,281.686695 289.573359,281.043329 C287.90699,280.436544 286.386007,279.473269 285.111685,278.217644 C283.791181,276.891746 282.764926,275.290373 282.102648,273.522331 C281.336859,271.446223 280.963613,269.239979 281.002794,267.02113 C280.964322,264.798499 281.352096,262.589729 282.144152,260.519928 C282.843085,258.74979 283.888267,257.144712 285.215444,255.80337 C286.490145,254.543171 288.010589,253.572997 289.677119,252.956438 C291.378299,252.316728 293.177336,251.992966 294.989624,252.000379 C296.842931,251.987331 298.683799,252.311034 300.426641,252.956438 C302.093171,253.572997 303.613615,254.543171 304.888315,255.80337 C306.202414,257.142862 307.227492,258.749636 307.897352,260.519928 C308.663141,262.596037 309.036387,264.80228 308.997206,267.02113 Z M287.539666,267.02113 C287.525003,268.313774 287.69275,269.601812 288.037713,270.845366 C288.346335,271.901548 288.846145,272.888917 289.511103,273.756035 C290.121961,274.572629 290.920335,275.222147 291.835324,275.646907 C292.823746,276.112551 293.901724,276.344893 294.989624,276.326771 C296.07712,276.340617 297.154188,276.10847 298.143924,275.646907 C299.068746,275.229023 299.875388,274.578586 300.488897,273.756035 C301.153855,272.888917 301.653665,271.901548 301.962287,270.845366 C302.30725,269.601812 302.474997,268.313774 302.460334,267.02113 C302.474972,265.721503 302.307244,264.426459 301.962287,263.175648 C301.658426,262.111029 301.158294,261.115811 300.488897,260.243733 C299.875388,259.421182 299.068746,258.770745 298.143924,258.352861 C297.154188,257.891297 296.07712,257.659151 294.989624,257.672996 C293.899176,257.651688 292.818973,257.891786 291.835324,258.374106 C290.928795,258.812912 290.133414,259.459995 289.511103,260.264979 C288.845704,261.147538 288.346111,262.148888 288.037713,263.218139 C287.69416,264.454735 287.526421,265.735556 287.539666,267.02113 Z" id="Shape" fill="#DB3C00"></path>
                <path d="M338.990902,266.95693 C339.0375,269.223665 338.666344,271.47806 337.898567,273.591754 C337.200129,275.394594 336.11997,276.999878 334.742934,278.281516 C333.289341,279.567249 331.601748,280.516586 329.786972,281.069439 C327.654579,281.709559 325.447821,282.02246 323.232965,281.998747 C322.120402,281.998747 320.825784,281.998747 319.349109,281.847464 C317.887438,281.747828 316.434144,281.538396 315,281.220722 L315,252.736361 C316.471642,252.450317 317.957542,252.255485 319.450252,252.152843 C320.987611,252.152843 322.322687,252.00156 323.495935,252.00156 C325.645672,251.976218 327.788844,252.25971 329.867886,252.844421 C331.659247,253.36218 333.332205,254.266898 334.783391,255.502673 C336.175637,256.756834 337.264926,258.350552 337.959252,260.149211 C338.712035,262.3258 339.062392,264.63776 338.990902,266.95693 Z M321.169667,276.250006 L322.181088,276.250006 L323.536392,276.250006 C326.049396,276.472483 328.535199,275.563712 330.393825,273.743037 C331.971726,271.864748 332.780309,269.389846 332.639179,266.870483 C332.985301,264.266887 332.15285,261.642484 330.396488,259.800124 C328.640125,257.957764 326.168852,257.116683 323.738676,257.534182 L322.444057,257.534182 C322.017815,257.546995 321.592464,257.583062 321.169667,257.642241 L321.169667,276.250006 Z" id="Shape" fill="#DB3C00"></path>
                <polygon id="Shape" fill="#DB3C00" points="346 281 346 253 365.003115 253 365.003115 258.293944 352.334372 258.293944 352.334372 263.794682 363.570093 263.794682 363.570093 268.964549 352.334372 268.964549 352.334372 275.644018 366 275.644018 366 280.937962"></polygon>
                <path d="M380.228667,276.553042 C380.954356,276.571901 381.679622,276.500493 382.389427,276.340299 C382.877073,276.227151 383.337542,276.009941 383.742426,275.702069 C384.064968,275.475388 384.312109,275.148076 384.449217,274.765999 C384.593211,274.387621 384.661943,273.982131 384.651157,273.574636 C384.637414,272.615733 384.166937,271.728367 383.399128,271.213185 C382.037247,270.35736 380.578549,269.685486 379.057414,269.213398 C378.148683,268.873009 377.260146,268.490071 376.371609,268.064585 C375.502014,267.648103 374.692919,267.103727 373.968521,266.447736 C373.243203,265.784826 372.652491,264.974372 372.231835,264.065011 C371.751171,263.010934 371.515808,261.85138 371.545239,260.682392 C371.527958,259.441605 371.776447,258.21268 372.272223,257.08703 C372.735913,256.026702 373.427244,255.094458 374.291625,254.363916 C375.216659,253.567436 376.279687,252.96775 377.421698,252.598147 C378.778963,252.180451 380.188035,251.979655 381.60186,252.002466 C383.209909,251.974651 384.813832,252.182287 386.367649,252.619421 C387.511504,252.957118 388.620845,253.413191 389.679468,253.980978 L387.902394,259.108092 C387.087001,258.660717 386.235508,258.290508 385.357948,258.001827 C384.26363,257.662641 383.125911,257.504743 381.985546,257.533791 C380.893828,257.448899 379.800179,257.669056 378.815085,258.172021 C378.164041,258.586546 377.789356,259.351334 377.845772,260.150534 C377.832443,260.619509 377.95962,261.080999 378.209265,261.469542 C378.475451,261.868137 378.81978,262.201866 379.218966,262.448162 C379.689408,262.765205 380.190302,263.02905 380.713323,263.235312 C381.278756,263.469329 381.90477,263.724621 382.591367,263.958639 C384.004948,264.533046 385.236784,265.064904 386.286873,265.618037 C387.251246,266.090359 388.137554,266.722418 388.912095,267.490178 C389.607697,268.205718 390.139459,269.078773 390.467034,270.043097 C390.840282,271.177944 391.01809,272.37391 390.992079,273.574636 C391.099938,275.992478 390.101214,278.318286 388.306274,279.829289 C385.906007,281.447469 383.069377,282.194564 380.228667,281.956722 C379.134768,281.968146 378.041496,281.897049 376.957236,281.743979 C376.085511,281.60705 375.222354,281.415238 374.372401,281.169572 C373.682733,280.992072 373.007489,280.757321 372.352999,280.467519 C371.827955,280.212227 371.363492,279.978209 371,279.765466 L372.736686,274.617078 C373.693096,275.150068 374.702094,275.570978 375.745595,275.872264 C377.20015,276.329697 378.710697,276.559081 380.228667,276.553042 Z" id="Shape" fill="#DB3C00"></path>
                <path d="M404.188279,276.510494 C404.913968,276.529353 405.639234,276.457945 406.349039,276.29775 C406.836685,276.184603 407.297154,275.967393 407.702038,275.65952 C408.02458,275.432839 408.271721,275.105527 408.408829,274.72345 C408.552823,274.345073 408.621555,273.939583 408.610769,273.532087 C408.597026,272.573184 408.126549,271.685818 407.35874,271.170637 C405.996859,270.314811 404.538161,269.642937 403.017026,269.17085 C402.108295,268.830461 401.219758,268.447523 400.331221,268.022036 C399.459475,267.60974 398.649832,267.064995 397.928133,266.405187 C397.202815,265.742277 396.612103,264.931823 396.191447,264.022462 C395.701586,262.97172 395.465732,261.809752 395.50485,260.639843 C395.487569,259.399057 395.736059,258.170132 396.231835,257.044482 C396.695525,255.984153 397.386856,255.05191 398.251237,254.321368 C399.191608,253.535183 400.268547,252.949841 401.421698,252.598147 C402.778963,252.180451 404.188035,251.979655 405.60186,252.002466 C407.209909,251.974651 408.813832,252.182287 410.367649,252.619421 C411.510324,252.960826 412.619328,253.416761 413.679468,253.980978 L411.902394,259.108092 C411.085337,258.664492 410.23416,258.294421 409.357948,258.001827 C408.26363,257.662641 407.125911,257.504743 405.985546,257.533791 C404.893828,257.448899 403.800179,257.669056 402.815085,258.172021 C402.164041,258.586546 401.789356,259.351334 401.845772,260.150534 C401.832443,260.619509 401.95962,261.080999 402.209265,261.469542 C402.473165,261.862633 402.809735,262.1955 403.198772,262.448162 C403.678575,262.76095 404.185747,263.02454 404.713323,263.235312 C405.278756,263.469329 405.90477,263.724621 406.571173,263.958639 C408.004948,264.533046 409.236784,265.064904 410.286873,265.618037 C411.251246,266.090359 412.137554,266.722418 412.912095,267.490178 C413.607697,268.205718 414.139459,269.078773 414.467034,270.043097 C414.840282,271.177944 415.01809,272.37391 414.992079,273.574636 C415.099938,275.992478 414.101214,278.318286 412.306274,279.829289 C409.906007,281.447469 407.069377,282.194564 404.228667,281.956722 C403.134768,281.968146 402.041496,281.897049 400.957236,281.743979 C400.085511,281.60705 399.222354,281.415238 398.372401,281.169572 C397.682733,280.992072 397.007489,280.757321 396.352999,280.467519 C395.827955,280.212227 395.363492,279.978209 395,279.765466 L396.736686,274.617078 C397.693096,275.150068 398.702094,275.570978 399.745595,275.872264 C401.189207,276.311189 402.68582,276.526191 404.188279,276.510494 Z" id="Shape" fill="#DB3C00"></path>
                <path d="M442.326531,281 C442.020408,280.025185 441.693878,279.02963 441.346939,277.992593 C441,276.955556 440.632653,275.918519 440.285714,274.922963 L429.489796,274.922963 L428.44898,277.992593 C428.081633,279.02963 427.77551,280.066667 427.469388,281 L421,281 C422.040816,277.971852 423.040816,275.171852 423.959184,272.703704 C424.877551,270.235556 425.816327,267.705185 426.693878,265.444444 C427.571429,263.183704 428.469388,261.026667 429.346939,258.973333 C430.22449,256.92 431.102041,254.94963 432.040816,253 L437.938776,253 C438.836735,254.94963 439.734694,256.940741 440.632653,258.973333 C441.510204,261.047407 442.387755,263.121481 443.285714,265.444444 C444.183673,267.767407 445.102041,270.131852 446.020408,272.703704 C446.938776,275.275556 447.959184,278.054815 449,281 L442.326531,281 Z M434.857143,259.284444 L434.244898,260.943704 C433.979592,261.648889 433.673469,262.457778 433.346939,263.37037 C433.020408,264.282963 432.612245,265.32 432.183673,266.419259 L430.897959,269.903704 L438.816327,269.903704 C438.387755,268.68 437.979592,267.518519 437.571429,266.398519 C437.163265,265.278519 436.816327,264.324444 436.44898,263.37037 C436.081633,262.416296 435.77551,261.628148 435.510204,260.922963 C435.244898,260.217778 435.020408,259.678519 434.857143,259.284444 Z" id="Shape" fill="#DB3C00"></path>
                <rect id="Rectangle-path" fill="#DB3C00" x="30" y="269" width="18" height="54"></rect>
                <rect id="Rectangle-path" fill="#DB3C00" x="30" y="306" width="53" height="18"></rect>
                <rect id="Rectangle-path" fill="#DB3C00" transform="translate(696.000000, 296.000000) rotate(-180.000000) translate(-696.000000, -296.000000) " x="687" y="269" width="18" height="54"></rect>
                <rect id="Rectangle-path" fill="#DB3C00" transform="translate(677.500000, 315.000000) rotate(-180.000000) translate(-677.500000, -315.000000) " x="651" y="306" width="53" height="18"></rect>
                <rect id="Rectangle-path" fill="#DB3C00" transform="translate(696.000000, 50.000000) rotate(180.000000) translate(-696.000000, -50.000000) " x="687" y="23" width="18" height="54"></rect>
                <rect id="Rectangle-path" fill="#DB3C00" transform="translate(677.500000, 32.000000) rotate(180.000000) translate(-677.500000, -32.000000) " x="651" y="23" width="53" height="18"></rect>
            </g>
        </g>
    </g>
</svg>